<svg xmlns="http://www.w3.org/2000/svg" xmlns:xlink="http://www.w3.org/1999/xlink" version="1.1" preserveAspectRatio="none" x="0px" y="0px" viewBox="0 0 100 100"><defs><g id="b"><path fill="#000000" stroke="none" d=" M 85.45 85 Q 86 80.45 83.55 76.75 80.8 72.75 72.65 70.35 64.45 67.9 61.85 65.55 59.2 63.25 59.75 60.1 62.35 58.35 63.4 55.6 70.9 57.8 75.65 53.5 72.15 49.95 71.75 44.75 71.45 36.6 70.25 30.3 69.05 23.95 65.8 20 62.7 16.25 57.7 15.25 57.4 15.2 57.1 15.15 57.05 15.15 57 15.15 49.9 14.5 46.8 17.7 45 16.9 43.3 16.65 43 16.6 42.65 16.6 38.9 16.25 35.5 18.6 31.9 21.95 30.6 26.55 29.3 31.25 28.55 38.4 L 28 47.5 Q 27.35 51.1 24.05 53.6 29.4 57.6 36.2 54.65 37.6 58.25 40.55 59.9 41 63.3 38.5 65.25 35.95 67.2 21.5 72.95 16.45 75.45 15.4 78.8 14.3 82.1 14.55 85 L 85.45 85 Z"/></g><path id="a" stroke="#000000" stroke-width="1" stroke-linejoin="round" stroke-linecap="round" fill="none" d=" M 85.45 85 Q 86 80.45 83.55 76.75 80.8 72.75 72.65 70.35 64.45 67.9 61.85 65.55 59.2 63.25 59.75 60.1 62.35 58.35 63.4 55.6 70.9 57.8 75.65 53.5 72.15 49.95 71.75 44.75 71.45 36.6 70.25 30.3 69.05 23.95 65.8 20 62.7 16.25 57.7 15.25 57.4 15.2 57.1 15.15 57.05 15.15 57 15.15 49.9 14.5 46.8 17.7 45 16.9 43.3 16.65 43 16.6 42.65 16.6 38.9 16.25 35.5 18.6 31.9 21.95 30.6 26.55 29.3 31.25 28.55 38.4 L 28 47.5 Q 27.35 51.1 24.05 53.6 29.4 57.6 36.2 54.65 37.6 58.25 40.55 59.9 41 63.3 38.5 65.25 35.95 67.2 21.5 72.95 16.45 75.45 15.4 78.8 14.3 82.1 14.55 85 L 85.45 85 Z"/></defs><g transform="matrix( 1, 0, 0, 1, 0,0) "><use xlink:href="#b"/><use xlink:href="#a"/></g></svg>