<svg xmlns="http://www.w3.org/2000/svg" xmlns:xlink="http://www.w3.org/1999/xlink" version="1.1" preserveAspectRatio="none" x="0px" y="0px" viewBox="0 0 100 100"><defs><g id="b"><path fill="#000000" stroke="none" d=" M 88.25 84.6 Q 87.5 80.8 85.45 78.75 82.9 75.8 66.05 69.3 60.65 66.8 60.65 63.6 L 60.5 61.15 Q 64.8 56.75 66.25 51.05 68.5 50.1 69 47.2 71.85 41.45 68 39.35 71 29.1 67.3 24.05 L 59 12.8 Q 59 15.55 57.8 15 58.45 13.3 57.8 12.55 57 14.45 55.15 14.75 L 56.25 12.95 Q 55.2 14.5 53.05 14.55 52.45 13.8 53.4 12.25 52.25 12.95 51.45 14.05 50.3 13.85 50.6 11.55 49.65 12.65 48.6 13.95 46.6 13.8 48.45 11.3 46.2 11.85 45.9 13.55 45.1 13.05 44.95 11.5 42.45 14.65 38.65 17.95 L 33.45 22.7 Q 30.2 26.2 30.35 31.65 30.5 37.05 31.8 39.35 28 41.8 30.65 47.3 31.25 50.5 33.55 50.75 35.2 56.85 39.6 61.15 40.05 66.05 35.95 68.25 33.2 69.75 29.55 71.05 L 22.85 73.75 Q 15.95 76.85 13.8 79.7 11.05 83.8 11.65 88.7 L 88.2 88.7 Q 88.65 86.6 88.25 84.6 Z"/></g><path id="a" stroke="#000000" stroke-width="1" stroke-linejoin="round" stroke-linecap="round" fill="none" d=" M 88.2 88.7 Q 88.65 86.6 88.25 84.6 87.5 80.8 85.45 78.75 82.9 75.8 66.05 69.3 60.65 66.8 60.65 63.6 L 60.5 61.15 Q 64.8 56.75 66.25 51.05 68.5 50.1 69 47.2 71.85 41.45 68 39.35 71 29.1 67.3 24.05 L 59 12.8 Q 59 15.55 57.8 15 58.45 13.3 57.8 12.55 57 14.45 55.15 14.75 L 56.25 12.95 Q 55.2 14.5 53.05 14.55 52.45 13.8 53.4 12.25 52.25 12.95 51.45 14.05 50.3 13.85 50.6 11.55 49.65 12.65 48.6 13.95 46.6 13.8 48.45 11.3 46.2 11.85 45.9 13.55 45.1 13.05 44.95 11.5 42.45 14.65 38.65 17.95 L 33.45 22.7 Q 30.2 26.2 30.35 31.65 30.5 37.05 31.8 39.35 28 41.8 30.65 47.3 31.25 50.5 33.55 50.75 35.2 56.85 39.6 61.15 40.05 66.05 35.95 68.25 33.2 69.75 29.55 71.05 L 22.85 73.75 Q 15.95 76.85 13.8 79.7 11.05 83.8 11.65 88.7 L 88.2 88.7 Z"/></defs><g transform="matrix( 1, 0, 0, 1, 0,0) "><use xlink:href="#b"/><use xlink:href="#a"/></g></svg>